<svg width="20" height="21" viewBox="0 0 20 21" fill="none" xmlns="http://www.w3.org/2000/svg">
<path d="M16.875 7.99993C16.8757 6.84134 16.5836 5.70136 16.0258 4.68589C15.468 3.67041 14.6626 2.81237 13.6844 2.19147C12.7062 1.57057 11.587 1.20694 10.4307 1.13435C9.27438 1.06177 8.11847 1.2826 7.07034 1.77631C6.02221 2.27002 5.11584 3.02062 4.43544 3.95837C3.75503 4.89613 3.32265 5.99062 3.17846 7.14021C3.03426 8.28979 3.18293 9.45717 3.61065 10.5339C4.03837 11.6107 4.73128 12.5619 5.625 13.2992V19.2499C5.62492 19.3565 5.65211 19.4614 5.70397 19.5545C5.75584 19.6476 5.83065 19.7259 5.92131 19.782C6.01197 19.838 6.11546 19.87 6.22195 19.8748C6.32843 19.8795 6.43437 19.857 6.52969 19.8093L10 18.0781L13.4711 19.8132C13.5581 19.8549 13.6535 19.876 13.75 19.8749C13.9158 19.8749 14.0747 19.8091 14.1919 19.6919C14.3092 19.5747 14.375 19.4157 14.375 19.2499V13.2992C15.157 12.6551 15.7867 11.8459 16.2189 10.9297C16.6512 10.0135 16.8752 9.01299 16.875 7.99993ZM4.375 7.99993C4.375 6.88741 4.7049 5.79988 5.32298 4.87485C5.94107 3.94982 6.81957 3.22885 7.84741 2.80311C8.87524 2.37737 10.0062 2.26597 11.0974 2.48302C12.1885 2.70006 13.1908 3.23579 13.9775 4.02246C14.7641 4.80913 15.2999 5.81141 15.5169 6.90255C15.734 7.99369 15.6226 9.12469 15.1968 10.1525C14.7711 11.1804 14.0501 12.0589 13.1251 12.677C12.2001 13.295 11.1125 13.6249 10 13.6249C8.50867 13.6233 7.07889 13.0301 6.02435 11.9756C4.96982 10.921 4.37666 9.49127 4.375 7.99993ZM5.625 7.99993C5.625 7.13464 5.88159 6.28878 6.36232 5.56931C6.84305 4.84985 7.52633 4.28909 8.32576 3.95796C9.12519 3.62683 10.0049 3.54019 10.8535 3.709C11.7022 3.87781 12.4817 4.29449 13.0936 4.90634C13.7054 5.5182 14.1221 6.29775 14.2909 7.14641C14.4597 7.99508 14.3731 8.87475 14.042 9.67417C13.7108 10.4736 13.1501 11.1569 12.4306 11.6376C11.7112 12.1183 10.8653 12.3749 10 12.3749C8.84006 12.3737 7.72798 11.9124 6.90778 11.0922C6.08758 10.272 5.62624 9.15987 5.625 7.99993Z" fill="#0F4733"/>
</svg>
