<svg width="20" height="20" viewBox="0 0 20 20" fill="none" xmlns="http://www.w3.org/2000/svg">
<path d="M16.875 7.49999C16.8757 6.3414 16.5836 5.20143 16.0258 4.18595C15.468 3.17047 14.6626 2.31244 13.6844 1.69153C12.7062 1.07063 11.587 0.706997 10.4307 0.634416C9.27438 0.561835 8.11847 0.782656 7.07034 1.27637C6.02221 1.77008 5.11584 2.52068 4.43544 3.45843C3.75503 4.39619 3.32265 5.49068 3.17846 6.64027C3.03426 7.78985 3.18293 8.95724 3.61065 10.034C4.03837 11.1107 4.73128 12.0619 5.625 12.7992V18.75C5.62492 18.8566 5.65211 18.9614 5.70397 19.0545C5.75584 19.1477 5.83065 19.226 5.92131 19.282C6.01197 19.3381 6.11546 19.37 6.22195 19.3748C6.32843 19.3796 6.43437 19.3571 6.52969 19.3094L10 17.5781L13.4711 19.3133C13.5581 19.3549 13.6535 19.376 13.75 19.375C13.9158 19.375 14.0747 19.3091 14.1919 19.1919C14.3092 19.0747 14.375 18.9158 14.375 18.75V12.7992C15.157 12.1552 15.7867 11.346 16.2189 10.4298C16.6512 9.51358 16.8752 8.51305 16.875 7.49999ZM4.375 7.49999C4.375 6.38747 4.7049 5.29994 5.32298 4.37491C5.94107 3.44988 6.81957 2.72891 7.84741 2.30317C8.87524 1.87743 10.0062 1.76603 11.0974 1.98308C12.1885 2.20012 13.1908 2.73585 13.9775 3.52252C14.7641 4.30919 15.2999 5.31147 15.5169 6.40261C15.734 7.49375 15.6226 8.62475 15.1968 9.65259C14.7711 10.6804 14.0501 11.5589 13.1251 12.177C12.2001 12.7951 11.1125 13.125 10 13.125C8.50867 13.1233 7.07889 12.5302 6.02435 11.4756C4.96982 10.4211 4.37666 8.99133 4.375 7.49999ZM5.625 7.49999C5.625 6.6347 5.88159 5.78884 6.36232 5.06937C6.84305 4.34991 7.52633 3.78915 8.32576 3.45802C9.12519 3.12689 10.0049 3.04025 10.8535 3.20906C11.7022 3.37787 12.4817 3.79455 13.0936 4.4064C13.7054 5.01826 14.1221 5.79781 14.2909 6.64647C14.4597 7.49514 14.3731 8.37481 14.042 9.17423C13.7108 9.97366 13.1501 10.6569 12.4306 11.1377C11.7112 11.6184 10.8653 11.875 10 11.875C8.84006 11.8738 7.72798 11.4124 6.90778 10.5922C6.08758 9.77201 5.62624 8.65993 5.625 7.49999Z" fill="#0F4733"/>
</svg>
