<svg width="32" height="32" viewBox="0 0 32 32" fill="none" xmlns="http://www.w3.org/2000/svg">
<path d="M28.0002 5.78659C27.8001 5.6277 27.566 5.51733 27.3162 5.46412C27.0663 5.41091 26.8076 5.41632 26.5602 5.47992L17.3335 7.85326V26.8799L27.4135 24.2933C27.774 24.201 28.0933 23.9907 28.3204 23.6959C28.5476 23.4011 28.6695 23.0387 28.6668 22.6666V7.09326C28.6627 6.83903 28.6005 6.58911 28.485 6.36263C28.3694 6.13615 28.2036 5.93911 28.0002 5.78659Z" fill="#0F4733"/>
<path d="M14.6665 7.85338L5.4132 5.48005C5.16959 5.42364 4.91651 5.42189 4.67215 5.47491C4.42778 5.52793 4.19819 5.63442 3.99987 5.78672C3.79777 5.94472 3.63488 6.14724 3.52387 6.3785C3.41286 6.60977 3.35674 6.86354 3.35987 7.12005V22.6667C3.36015 23.0366 3.48345 23.3958 3.71036 23.6879C3.93727 23.98 4.25489 24.1883 4.6132 24.2801L14.6665 26.8801V7.85338Z" fill="#0F4733"/>
</svg>
