<svg width="80" height="80" viewBox="0 0 80 80" fill="none" xmlns="http://www.w3.org/2000/svg">
<path d="M17.1951 61.3333H62.8051V66.6665H17.1951V61.3333Z" fill="#D7E4F7"/>
<path d="M17.1951 61.3333H22.4235V66.6665H17.1951V61.3333Z" fill="#BED2EE"/>
<path d="M57.6311 61.3333H62.805V66.6665H57.6311V61.3333Z" fill="#BED2EE"/>
<path d="M69.3333 76.2189H61.3333V57.2072L61.6458 56L61.3333 54.7926V49.1145H69.3333V54.7926L69.0208 56L69.3333 57.2072V76.2189Z" fill="#D7E4F7"/>
<path d="M65.6226 76.2189H69.3332V57.2072L69.0207 56L69.3332 54.7926V49.1145H65.6226V76.2189Z" fill="#BED2EE"/>
<path d="M18.6667 76.2189H10.6667V57.2072L10.9792 56L10.6667 54.7926V49.1145H18.6667V54.7926L18.3542 56L18.6667 57.2072V76.2189Z" fill="#D7E4F7"/>
<path d="M14.9561 76.2189H18.6668V57.2072L18.3543 56L18.6668 54.7926V49.1145H14.9561V76.2189Z" fill="#BED2EE"/>
<path d="M10.6667 54.7927H18.6667V57.2073H10.6667V54.7927Z" fill="#596C76"/>
<path d="M20.0833 80H9.25C8.55969 80 8 79.4403 8 78.75V77.1667C8 75.786 9.11922 74.6667 10.5 74.6667H18.8333C20.2141 74.6667 21.3333 75.786 21.3333 77.1667V78.75C21.3333 79.4403 20.7738 80 20.0833 80Z" fill="#596C76"/>
<path d="M9.33325 12.357H20V19.6432H9.33325V12.357Z" fill="#D7E4F7"/>
<path d="M9.33325 39.0625H20V46.3488H9.33325V39.0625Z" fill="#D7E4F7"/>
<path d="M60 39.0625H70.6667V46.3488H60V39.0625Z" fill="#D7E4F7"/>
<path d="M16.2979 12.357H20V19.6432H16.2979V12.357Z" fill="#BED2EE"/>
<path d="M16.2979 39.0625H20V46.3488H16.2979V39.0625Z" fill="#BED2EE"/>
<path d="M66.9646 39.0625H70.6668V46.3488H66.9646V39.0625Z" fill="#BED2EE"/>
<path d="M21.3333 8L20.3714 2.22828C20.157 0.9425 19.0445 0 17.7409 0H11.5923C10.2888 0 9.17625 0.9425 8.96203 2.22828L8 8V9.66031H21.3333V8Z" fill="#FF1F3D"/>
<path d="M20.3712 2.22828C20.1569 0.9425 19.0444 0 17.7408 0H14.0386C15.3422 0 16.4547 0.9425 16.6689 2.22828L17.6309 8V9.66031H21.3331V8L20.3712 2.22828Z" fill="#DB001D"/>
<path d="M6.58325 8H22.75C23.4403 8 24 8.55969 24 9.25V12.0833C24 12.7736 23.4403 13.3333 22.75 13.3333H6.58325C5.89294 13.3333 5.33325 12.7736 5.33325 12.0833V9.25C5.33325 8.55969 5.89294 8 6.58325 8Z" fill="#E9F1FF"/>
<path d="M22.7124 8H19.0103C19.7213 8 20.2979 8.57656 20.2979 9.28766V12.0456C20.2979 12.7569 19.7213 13.3333 19.0103 13.3333H22.7124C23.4235 13.3333 24.0001 12.7567 24.0001 12.0456V9.28766C24.0001 8.57656 23.4235 8 22.7124 8Z" fill="#D7E4F7"/>
<path d="M61.3333 54.7927H69.3333V57.2073H61.3333V54.7927Z" fill="#596C76"/>
<path d="M70.75 80H59.9167C59.2264 80 58.6667 79.4403 58.6667 78.75V77.1667C58.6667 75.786 59.786 74.6667 61.1667 74.6667H69.5C70.8808 74.6667 72 75.786 72 77.1667V78.75C72 79.4403 71.4403 80 70.75 80Z" fill="#596C76"/>
<path d="M60 12.357H70.6667V19.6432H60V12.357Z" fill="#D7E4F7"/>
<path d="M66.9644 12.357H70.6665V19.6432H66.9644V12.357Z" fill="#BED2EE"/>
<path d="M77.1875 18.5938H65.6227L61.2578 19.8973L53.0441 18.5938H40.2894L35.6019 20.2918L27.7108 18.5938H14.9561L11.0227 20.8588L2.42047 18.6139C1.05328 18.7409 0 19.5185 0 20.4614V37.9762C0 38.9167 1.04781 39.6926 2.41 39.8226L10.7812 38.7467L14.9559 39.8438H27.7106L33.8567 38.5925L40.2894 39.8438H53.0441L58.2225 38.813L65.6227 39.8438H77.1875C78.7408 39.8438 80 39.0075 80 37.9761V20.4613C80 19.43 78.7408 18.5938 77.1875 18.5938Z" fill="#FFE984"/>
<path d="M77.1875 45.4688H65.6227L61.2578 46.7723L53.0441 45.4688H40.2894L35.6019 47.1668L27.7108 45.4688H14.9561L11.0227 47.7338L2.42047 45.4889C1.05328 45.6159 0 46.3935 0 47.3364V64.8512C0 65.7917 1.04781 66.5676 2.41 66.6976L10.7812 65.6217L14.9559 66.7188H27.7106L33.8567 65.4675L40.2894 66.7188H53.0441L58.2225 65.688L65.6227 66.7188H77.1875C78.7408 66.7188 80 65.8825 80 64.8511V47.3363C80 46.305 78.7408 45.4688 77.1875 45.4688Z" fill="#FFE984"/>
<path d="M77.1189 18.5938H73.4375C75.0287 18.5938 76.3186 19.4552 76.3186 20.5178V37.9197C76.3186 38.9823 75.0287 39.8438 73.4375 39.8438H77.1189C78.7101 39.8438 80 38.9823 80 37.9197V20.5178C80 19.4552 78.7101 18.5938 77.1189 18.5938Z" fill="#FFCC2F"/>
<path d="M77.1189 45.4688H73.4375C75.0287 45.4688 76.3186 46.3302 76.3186 47.3928V64.7947C76.3186 65.8573 75.0287 66.7188 73.4375 66.7188H77.1189C78.7101 66.7188 80 65.8573 80 64.7947V47.3928C80 46.3302 78.7101 45.4688 77.1189 45.4688Z" fill="#FFCC2F"/>
<path d="M72 8L71.0381 2.22828C70.8238 0.9425 69.7113 0 68.4077 0H62.2591C60.9555 0 59.843 0.9425 59.6286 2.22828L58.6667 8V9.66031H72V8Z" fill="#FF1F3D"/>
<path d="M40.2894 39.8437L49.8477 29.7229C50.1179 29.4368 50.1179 29.0738 49.8477 28.7876L40.2894 18.6668H27.7107L37.2691 28.7876C37.5393 29.0738 37.5393 29.4368 37.2691 29.7229L27.7107 39.8437H40.2894Z" fill="#3E4F55"/>
<path d="M65.6228 18.6667L75.1812 28.7875C75.4515 29.0736 75.4515 29.4367 75.1812 29.7228L65.6228 39.8436H53.0442L62.6025 29.7228C62.8726 29.4367 62.8726 29.0736 62.6025 28.7875L53.0442 18.6667H65.6228Z" fill="#3E4F55"/>
<path d="M24.5144 28.7875L14.9562 18.6667H2.8974C2.73256 18.6667 2.57193 18.6678 2.41459 18.6853L11.9358 28.7876C12.206 29.0737 12.206 29.4368 11.9358 29.7229L2.41381 39.8053L2.3999 39.8239C2.56193 39.8425 2.72756 39.8437 2.89756 39.8437H14.9562L24.5144 29.7229C24.7846 29.4367 24.7846 29.0736 24.5144 28.7875Z" fill="#3E4F55"/>
<path d="M40.2894 66.7188L49.8477 56.598C50.1179 56.3119 50.1179 55.9488 49.8477 55.6627L40.2894 45.5419H27.7107L37.2691 55.6627C37.5393 55.9488 37.5393 56.3119 37.2691 56.598L27.7107 66.7188H40.2894Z" fill="#3E4F55"/>
<path d="M65.6228 45.5417L75.1812 55.6626C75.4515 55.9487 75.4515 56.3117 75.1812 56.5979L65.6228 66.7187H53.0442L62.6025 56.5979C62.8726 56.3117 62.8726 55.9487 62.6025 55.6626L53.0442 45.5417H65.6228Z" fill="#3E4F55"/>
<path d="M24.5144 55.6626L14.9562 45.5417H2.8974C2.73256 45.5417 2.57193 45.5429 2.41459 45.5604L11.9358 55.6627C12.206 55.9488 12.206 56.3118 11.9358 56.598L2.41381 66.6803L2.3999 66.6989C2.56193 66.7175 2.72756 66.7188 2.89756 66.7188H14.9562L24.5144 56.598C24.7846 56.3117 24.7846 55.9487 24.5144 55.6626Z" fill="#3E4F55"/>
<path d="M75.1103 28.7495L65.5701 18.5938H61.875L71.4152 28.7495C71.6848 29.0366 71.6848 29.4009 71.4152 29.688L61.875 39.8438H65.5701L75.1103 29.688C75.3799 29.4009 75.3799 29.0366 75.1103 28.7495Z" fill="#303D42"/>
<path d="M75.1103 55.6245L65.5701 45.4688H61.875L71.4152 55.6245C71.6848 55.9116 71.6848 56.2759 71.4152 56.563L61.875 66.7188H65.5701L75.1103 56.563C75.3799 56.2759 75.3799 55.9116 75.1103 55.6245Z" fill="#303D42"/>
<path d="M49.7977 28.7495L40.2576 18.5938H36.5625L46.1024 28.7495C46.3721 29.0366 46.3721 29.4009 46.1024 29.688L36.5625 39.8438H40.2576L49.7977 29.688C50.0674 29.4009 50.0674 29.0366 49.7977 28.7495Z" fill="#303D42"/>
<path d="M49.7977 55.6245L40.2576 45.4688H36.5625L46.1024 55.6245C46.3721 55.9116 46.3721 56.2759 46.1024 56.563L36.5625 66.7188H40.2576L49.7977 56.563C50.0674 56.2759 50.0674 55.9116 49.7977 55.6245Z" fill="#303D42"/>
<path d="M24.4853 28.7495L14.9453 18.5938H11.25L20.79 28.7495C21.0597 29.0366 21.0597 29.4009 20.79 29.688L11.25 39.8438H14.9451L24.4851 29.688C24.7549 29.4009 24.7549 29.0366 24.4853 28.7495Z" fill="#303D42"/>
<path d="M24.4853 55.6245L14.9453 45.4688H11.25L20.79 55.6245C21.0597 55.9116 21.0597 56.2759 20.79 56.563L11.25 66.7188H14.9451L24.4851 56.563C24.7549 56.2759 24.7549 55.9116 24.4853 55.6245Z" fill="#303D42"/>
<path d="M71.0381 2.22828C70.8239 0.9425 69.7114 0 68.4078 0H64.7056C66.0092 0 67.1217 0.9425 67.3359 2.22828L68.2978 8V9.66031H72.0001V8L71.0381 2.22828Z" fill="#DB001D"/>
<path d="M57.25 8H73.4167C74.107 8 74.6667 8.55969 74.6667 9.25V12.0833C74.6667 12.7736 74.107 13.3333 73.4167 13.3333H57.25C56.5597 13.3333 56 12.7736 56 12.0833V9.25C56 8.55969 56.5597 8 57.25 8Z" fill="#E9F1FF"/>
<path d="M73.3789 8H69.6768C70.388 8 70.9644 8.57656 70.9644 9.28766V12.0456C70.9644 12.7569 70.3879 13.3333 69.6768 13.3333H73.3789C74.09 13.3333 74.6666 12.7567 74.6666 12.0456V9.28766C74.6668 8.57656 74.0902 8 73.3789 8Z" fill="#D7E4F7"/>
<path d="M18.8333 74.6667H15.2395C16.6203 74.6667 17.7395 75.7861 17.7395 77.1667V78.75C17.7395 79.4403 17.1798 80 16.4895 80H20.0833C20.7736 80 21.3333 79.4403 21.3333 78.75V77.1667C21.3333 75.786 20.214 74.6667 18.8333 74.6667Z" fill="#3E4F55"/>
<path d="M69.5 74.6667H65.9062C67.287 74.6667 68.4062 75.7861 68.4062 77.1667V78.75C68.4062 79.4403 67.8466 80 67.1562 80H70.75C71.4403 80 72 79.4403 72 78.75V77.1667C72 75.786 70.8808 74.6667 69.5 74.6667Z" fill="#3E4F55"/>
<path d="M39.9263 55.7813C47.2158 55.7813 53.1251 49.872 53.1251 42.5825C53.1251 35.293 47.2158 29.3837 39.9263 29.3837C32.6368 29.3837 26.7275 35.293 26.7275 42.5825C26.7275 49.872 32.6368 55.7813 39.9263 55.7813Z" fill="#F7F0EB"/>
<path d="M39.9261 53.0507C45.7075 53.0507 50.3943 48.3639 50.3943 42.5825C50.3943 36.8011 45.7075 32.1144 39.9261 32.1144C34.1448 32.1144 29.458 36.8011 29.458 42.5825C29.458 48.3639 34.1448 53.0507 39.9261 53.0507Z" fill="#FF1F3D"/>
<path fill-rule="evenodd" clip-rule="evenodd" d="M36.3983 44.9719H43.4543C44.7729 44.9719 45.8436 43.9013 45.8436 42.5824C45.8436 41.2638 44.7729 40.1931 43.4543 40.1931H36.3983C35.0794 40.1931 34.0088 41.2638 34.0088 42.5824C34.0088 43.9013 35.0794 44.9719 36.3983 44.9719Z" fill="#FFFBF5"/>
</svg>
