<svg width="64" height="64" viewBox="0 0 64 64" fill="none" xmlns="http://www.w3.org/2000/svg">
<path d="M48.5434 59.5112L42.437 57.7871C41.9741 57.6567 41.4824 57.8613 41.2505 58.2827L38.1929 63.8427C38.0703 64.0659 37.7456 64.0473 37.6465 63.8139L34.8989 57.2485L28.2837 41.4419L33.1831 29.7378L37.3467 31.4799L41.5151 41.4409L48.9062 59.1015C49.0039 59.3364 48.7871 59.58 48.5434 59.5112Z" fill="#FF4A4A"/>
<path d="M41.5151 41.4409L34.8989 57.2485L28.2837 41.4419L33.1831 29.7378L37.3462 31.4799L41.5151 41.4409Z" fill="#EF3535"/>
<path d="M25.7217 63.8427L22.6636 58.2831C22.4322 57.8618 21.9405 57.6562 21.4781 57.7871L15.3711 59.5112C15.127 59.58 14.9107 59.3359 15.0088 59.1015L27.8799 28.3466L39.1387 33.0586L26.2676 63.8134C26.1695 64.0478 25.8443 64.0654 25.7217 63.8427Z" fill="#FF4A4A"/>
<path d="M34.7036 0.986328L38.4604 4.08301C39.1245 4.63037 39.937 4.9668 40.7929 5.04932L45.6391 5.51562C47.6967 5.71387 49.3252 7.34228 49.5234 9.3999L49.9902 14.2461C50.0727 15.1025 50.4092 15.915 50.9565 16.5786L54.0532 20.3354C55.3681 21.9307 55.3681 24.2334 54.0532 25.8286L50.9565 29.5854C50.4092 30.249 50.0727 31.0615 49.9902 31.918L49.5234 36.7642C49.3252 38.8218 47.6967 40.4502 45.6391 40.6484L40.7929 41.1152C39.9365 41.1977 39.1245 41.5342 38.4604 42.081L34.7036 45.1782C33.1089 46.4927 30.8056 46.4927 29.2104 45.1782L25.4541 42.081C24.79 41.5342 23.9775 41.1977 23.1211 41.1152L18.2754 40.6484C16.2178 40.4502 14.5889 38.8218 14.3911 36.7642L13.9243 31.918C13.8418 31.0615 13.5054 30.249 12.958 29.5854L9.86133 25.8286C8.54639 24.2339 8.54639 21.9307 9.86133 20.3354L12.958 16.5791C13.5054 15.915 13.8418 15.1025 13.9243 14.2461L14.3906 9.3999C14.5889 7.34277 16.2173 5.71387 18.2749 5.51611L23.1211 5.04932C23.9775 4.9668 24.79 4.63037 25.4536 4.08301L29.2104 0.986328C30.8056 -0.328613 33.1089 -0.328613 34.7036 0.986328Z" fill="#FFC107"/>
<path d="M46.2573 23.082C46.2573 30.98 39.855 37.3823 31.957 37.3823C24.0596 37.3823 17.6572 30.98 17.6572 23.082C17.6572 15.1846 24.0596 8.78223 31.957 8.78223C39.855 8.78223 46.2573 15.1846 46.2573 23.082Z" fill="#FF8000"/>
<path d="M31.957 8.78223C30.7173 8.78223 29.5137 8.93994 28.3662 9.23682C34.5259 10.8296 39.0757 16.4243 39.0757 23.082C39.0757 29.7397 34.5264 35.3345 28.3662 36.9272C29.5137 37.2241 30.7173 37.3818 31.957 37.3818C39.855 37.3818 46.2573 30.9795 46.2573 23.082C46.2573 15.1841 39.855 8.78223 31.957 8.78223Z" fill="#FF5F06"/>
<path d="M28.6304 30.3481C28.0967 30.3481 27.585 30.1362 27.2075 29.7588L22.936 25.4868C22.1499 24.7012 22.1499 23.4268 22.936 22.6406C23.7217 21.8545 24.9961 21.8545 25.7822 22.6406L28.6309 25.4892L36.5322 17.5874C37.3183 16.8018 38.5928 16.8018 39.3784 17.5874C40.1645 18.3735 40.1645 19.6479 39.3784 20.4341L30.0537 29.7588C29.6763 30.1362 29.1645 30.3481 28.6304 30.3481Z" fill="white"/>
</svg>
