<svg width="64" height="64" viewBox="0 0 64 64" fill="none" xmlns="http://www.w3.org/2000/svg">
<g clip-path="url(#clip0_113_47)">
<path d="M54.2777 26.4484C54.7279 25.7829 54.9909 24.9802 54.9909 24.1162C54.9909 22.1056 53.5671 20.4277 51.6727 20.0352C51.5164 8.94362 42.478 0 31.3491 0C20.2204 0 11.1819 8.94363 11.0255 20.0354C9.13113 20.4278 7.70738 22.1056 7.70738 24.1164C7.70738 24.9804 7.97025 25.7829 8.4205 26.4485C6.8235 27.9514 5.82487 30.0829 5.82487 32.4489C5.82487 36.4523 8.68012 39.7876 12.4651 40.5327C12.0996 41.2862 11.8945 42.132 11.8945 43.0256C11.8945 46.185 14.4556 48.7463 17.615 48.7463H45.0832C48.2426 48.7463 50.8037 46.185 50.8037 43.0256C50.8037 42.1319 50.5985 41.2862 50.2331 40.5327C54.0181 39.7876 56.8734 36.4524 56.8734 32.4489C56.8734 30.0829 55.8747 27.9514 54.2777 26.4484Z" fill="#596C76"/>
<path d="M33.0951 48.7464H17.6153C16.0353 48.7464 14.6045 48.1064 13.5693 47.071C12.534 46.0356 11.8939 44.6062 11.8939 43.0262C11.8939 42.1326 12.0999 41.2865 12.4656 40.5332C10.5726 40.1611 8.91275 39.1399 7.7255 37.7131C6.53813 36.285 5.82475 34.4512 5.82475 32.4489C5.82475 30.0834 6.82275 27.9509 8.42075 26.448C8.19538 26.1157 8.01638 25.7487 7.89538 25.3572C7.773 24.9645 7.70738 24.5485 7.70738 24.1159C7.70738 22.1057 9.13038 20.4279 11.0259 20.0351C11.1045 14.4889 13.4018 9.48086 17.073 5.85849C20.743 2.23611 25.7845 0.000610352 31.3488 0.000610352C33.1593 0.000610352 34.9145 0.23761 36.5846 0.680485C33.1206 1.60249 30.0198 3.41436 27.5435 5.85849C23.8735 9.48086 21.5749 14.4889 21.4964 20.0351C21.4964 20.0351 22.0968 24.2606 21.5691 24.719L33.0951 48.7464Z" fill="#465A61"/>
<path d="M43.7093 57.0573V63.143C43.7093 63.6169 43.3267 63.9994 42.8529 63.9994H19.845C19.3737 63.9994 18.9886 63.6169 18.9886 63.143V57.0573C18.9886 54.393 19.9467 51.954 21.5357 50.0637C22.3689 49.0734 23.3759 48.2338 24.5091 47.5912C26.0891 46.6937 27.9177 46.1812 29.8647 46.1812H32.833C34.7826 46.1812 36.6099 46.6937 38.1912 47.5899C39.3231 48.2325 40.3301 49.072 41.162 50.0637C42.7524 51.954 43.7093 54.3929 43.7093 57.0573Z" fill="#97DA7B"/>
<path d="M31.3491 59.3705C30.8158 59.3705 30.3834 58.9381 30.3834 58.4047V50.92C30.3834 50.3866 30.8158 49.9542 31.3491 49.9542C31.8825 49.9542 32.3149 50.3866 32.3149 50.92V58.4047C32.3149 58.9381 31.8825 59.3705 31.3491 59.3705Z" fill="#80D261"/>
<path d="M34.7313 46.3468C29.6296 47.2439 25.7528 51.6988 25.7528 57.0574V63.9994H19.846C19.3729 63.9994 18.9894 63.6159 18.9894 63.1428V57.0574C18.9894 51.0509 23.8586 46.1816 29.8651 46.1816H32.834C33.4809 46.1816 34.1155 46.2385 34.7313 46.3468Z" fill="#80D261"/>
<path d="M38.191 47.5904C38.168 51.3483 35.1125 54.3889 31.3491 54.3889C29.5601 54.3889 27.9336 53.7015 26.7144 52.5783C25.3679 51.3388 24.5209 49.5647 24.5086 47.5917C25.6196 46.9597 26.8538 46.5199 28.165 46.3143V41.0612H34.5874V46.3224C35.8796 46.5308 37.0949 46.9679 38.191 47.5904Z" fill="#FFDFCF"/>
<path d="M44.4815 22.2301C45.5049 21.6991 46.7242 21.5464 47.9174 21.8905C50.3855 22.6036 51.8085 25.1844 51.0955 27.654C50.3809 30.1221 47.3725 33.0285 44.903 32.3139C44.7177 32.2599 44.5402 32.1872 44.3705 32.0962H18.3283C18.1585 32.1874 17.981 32.2599 17.7957 32.3139C15.3261 33.0285 12.3179 30.1221 11.6047 27.654C10.8901 25.1844 12.3133 22.6036 14.7812 21.8905C15.9744 21.5462 17.1937 21.6991 18.2171 22.2301H44.4815Z" fill="#FFCEBF"/>
<path d="M44.4806 20.3273V30.3749C44.4806 36.5104 40.2735 41.662 34.5873 43.1045C33.5506 43.367 32.4668 43.5064 31.349 43.5064C24.0971 43.5064 19.5051 37.628 19.5051 30.3749L18.2174 20.8131C18.2174 20.0891 18.9035 19.5628 19.6018 19.7535C20.752 20.0675 22.5423 20.4301 24.6925 20.4369C28.2826 20.4464 32.8754 19.4613 37.1501 15.587C37.5331 15.2393 38.1325 15.3259 38.4045 15.7656C39.1299 16.9375 40.7239 18.8659 43.5115 19.238C44.0639 19.3123 44.4806 19.771 44.4806 20.3273Z" fill="#FFDFCF"/>
<path d="M34.5874 43.1045C33.5508 43.367 32.4669 43.5064 31.3491 43.5064C24.0973 43.5064 18.2175 37.628 18.2175 30.3749V20.8131C18.2175 20.0891 18.9036 19.5627 19.6019 19.7535C20.7521 20.0675 22.5424 20.4301 24.6926 20.4369V30.3749C24.6926 36.5102 28.8998 41.6632 34.5874 43.1045Z" fill="#FFCEBF"/>
<path d="M26.2952 26.9441C25.7619 26.9441 25.3295 26.5118 25.3295 25.9784V24.275C25.3295 23.7416 25.7619 23.3093 26.2952 23.3093C26.8286 23.3093 27.261 23.7416 27.261 24.275V25.9784C27.261 26.5116 26.8286 26.9441 26.2952 26.9441Z" fill="#465A61"/>
<path d="M36.4036 26.9441C35.8703 26.9441 35.4379 26.5118 35.4379 25.9784V24.275C35.4379 23.7416 35.8703 23.3093 36.4036 23.3093C36.937 23.3093 37.3694 23.7416 37.3694 24.275V25.9784C37.3694 26.5116 36.937 26.9441 36.4036 26.9441Z" fill="#465A61"/>
<path d="M16.93 29.7865C16.3966 29.7865 15.9643 29.3541 15.9643 28.8208C15.9643 27.8061 15.281 26.9144 14.3026 26.6523C13.7874 26.5141 13.4818 25.9845 13.6198 25.4694C13.7579 24.9541 14.2876 24.6491 14.8026 24.7865C16.6239 25.2745 17.8959 26.9335 17.8959 28.8209C17.8959 29.354 17.4635 29.7865 16.93 29.7865Z" fill="#FFB09E"/>
<path d="M45.7688 29.7865C45.2354 29.7865 44.803 29.3541 44.803 28.8208C44.803 26.9334 46.075 25.2745 47.8963 24.7864C48.4118 24.6485 48.9411 24.9541 49.0791 25.4693C49.2171 25.9845 48.9114 26.5141 48.3963 26.6521C47.418 26.9143 46.7346 27.806 46.7346 28.8206C46.7345 29.354 46.3021 29.7865 45.7688 29.7865Z" fill="#FFB09E"/>
<path d="M31.3494 35.3436C29.8682 35.3436 28.3871 34.7799 27.2596 33.6523C26.8824 33.2751 26.8824 32.6636 27.2596 32.2864C27.6367 31.9093 28.2482 31.9093 28.6255 32.2864C30.1275 33.7883 32.5712 33.7883 34.0734 32.2864C34.4505 31.9093 35.062 31.9093 35.4392 32.2864C35.8165 32.6635 35.8165 33.275 35.4392 33.6523C34.3116 34.7798 32.8305 35.3436 31.3494 35.3436Z" fill="#FE646F"/>
<path d="M30.6251 41.647V47.9867C28.9269 49.114 27.5628 50.704 26.7144 52.5782C25.3679 51.3387 24.5209 49.5646 24.5086 47.5916C25.6196 46.9596 26.8538 46.5198 28.165 46.3142V41.647H30.6251Z" fill="#FFCEBF"/>
<path d="M59.4886 46.8284L51.2794 48.7466L43.0701 46.8284C41.6553 46.4977 40.3014 47.5716 40.3014 49.0247V61.7438C40.3014 62.9895 41.3112 63.9993 42.5569 63.9993H60.0019C61.2475 63.9993 62.2574 62.9896 62.2574 61.7438V49.0247C62.2574 47.5717 60.9036 46.4979 59.4886 46.8284Z" fill="#FD8087"/>
<path d="M45.9017 64H42.5575C41.311 64 40.3014 62.9903 40.3014 61.7438V49.025C40.3014 47.5725 41.6547 46.4985 43.07 46.8293L44.5985 47.1861C44.028 47.5891 43.6469 48.2536 43.6469 49.025V61.7438C43.647 62.9903 44.6565 64 45.9017 64Z" fill="#FE646F"/>
<path d="M54.5531 53.9201C54.1145 53.9201 53.7176 53.6193 53.6135 53.1738C53.4921 52.6544 53.8148 52.1349 54.3343 52.0136L59.269 50.8604C59.7884 50.7391 60.3079 51.0618 60.4292 51.5812C60.5506 52.1006 60.228 52.6201 59.7085 52.7414L54.7738 53.8946C54.6998 53.9118 54.6259 53.9201 54.5531 53.9201Z" fill="#596C76"/>
<path d="M51.3304 57.5878H49.3605C47.5801 57.5878 46.1369 59.0311 46.1369 60.8115V63.999H54.5539V60.8115C54.5539 59.0311 53.1106 57.5878 51.3304 57.5878Z" fill="#FFDFCF"/>
<path d="M51.8641 57.6341C50.3434 57.8916 49.1844 59.2167 49.1844 60.811V63.9993H46.1273V60.811C46.1273 59.0313 47.5708 57.5878 49.3504 57.5878H51.3206C51.5061 57.5877 51.6877 57.6032 51.8641 57.6341Z" fill="#FFCEBF"/>
<path d="M15.1721 57.5004C14.8553 57.5004 14.5448 57.3446 14.36 57.0585L1.89738 37.7676C1.608 37.3196 1.7365 36.7217 2.1845 36.4322C2.63263 36.143 3.23038 36.2714 3.51988 36.7194L15.9825 56.0102C16.2719 56.4582 16.1434 57.0561 15.6954 57.3456C15.5333 57.4504 15.3518 57.5004 15.1721 57.5004Z" fill="#2ED1E2"/>
<path d="M17.6611 56.264H16.4735C14.6654 56.264 13.1996 57.7297 13.1996 59.5379V60.7255C13.1996 62.5336 14.6654 63.9994 16.4735 63.9994H17.6611C19.4693 63.9994 20.935 62.5336 20.935 60.7255V59.5379C20.935 57.7297 19.4691 56.264 17.6611 56.264Z" fill="#FFDFCF"/>
<path d="M18.4858 63.8946C18.223 63.9629 17.9463 63.9989 17.6616 63.9989H16.4744C14.6664 63.9989 13.1996 62.5335 13.1996 60.7255V59.5369C13.1996 57.7289 14.6664 56.2635 16.4744 56.2635H17.6616C17.9463 56.2635 18.2231 56.2995 18.4858 56.3677C17.077 56.7335 16.0365 58.0135 16.0365 59.5369V60.7255C16.0364 62.2489 17.0769 63.5289 18.4858 63.8946Z" fill="#FFCEBF"/>
</g>
<defs>
<clipPath id="clip0_113_47">
<rect width="64" height="64" fill="white"/>
</clipPath>
</defs>
</svg>
