<svg width="64" height="64" viewBox="0 0 64 64" fill="none" xmlns="http://www.w3.org/2000/svg">
<g clip-path="url(#clip0_113_10)">
<path d="M56.6053 11.5415C50.7354 4.48962 41.8924 0 32 0L29.5 32L32 64C37.6207 64 42.902 62.549 47.4925 60.0039L58.2892 37.1082L56.6053 11.5415Z" fill="#2995CC"/>
<path d="M64 32C64 24.2193 61.222 17.088 56.6053 11.5415H46.1515C43.0279 11.5415 40.4956 14.0738 40.4956 17.1974C40.4956 20.321 43.0279 22.8533 46.1515 22.8533H48.2636C51.3874 22.8533 53.9195 25.3855 53.9195 28.5091C53.9195 31.6328 51.3873 34.165 48.2636 34.165H29.5L32 47.9508H37.7776C40.9013 47.9508 43.4335 50.483 43.4335 53.6066C43.4335 56.4343 45.094 58.873 47.4926 60.0039C57.3359 54.5466 64 44.0524 64 32Z" fill="#29CCCC"/>
<path d="M0 32C0 49.6731 14.3269 64 32 64V60.25L29.5 31.2234L32 3.75V0C14.3269 0 0 14.3269 0 32Z" fill="#FFE14D"/>
<path d="M3.75 32C3.75 47.602 16.398 60.25 32 60.25V34.165L29.5 31.2234L32 29.3484V3.75C16.398 3.75 3.75 16.398 3.75 32Z" fill="#FFF5F5"/>
<path d="M18.125 52.2803L20 49.0328L23.2475 50.9078L21.3725 54.1553L18.125 52.2803Z" fill="#6D4D8C"/>
<path d="M9.84445 42.6253L13.092 40.7503L14.967 43.9978L11.7195 45.8728L9.84445 42.6253Z" fill="#6D4D8C"/>
<path d="M7.5 30.125H11.25V33.875H7.5V30.125Z" fill="#6D4D8C"/>
<path d="M9.84431 21.3739L11.7193 18.1264L14.9668 20.0014L13.0918 23.2489L9.84431 21.3739Z" fill="#6D4D8C"/>
<path d="M18.1257 11.7198L21.3732 9.84482L23.2482 13.0923L20.0007 14.9673L18.1257 11.7198Z" fill="#6D4D8C"/>
<path d="M32 29.3484L21.3049 18.6534L18.6534 21.305L28.9464 31.598L19.5876 37.0013L21.4626 40.2488L32 34.165V29.3484Z" fill="#FF6666"/>
</g>
<defs>
<clipPath id="clip0_113_10">
<rect width="64" height="64" fill="white"/>
</clipPath>
</defs>
</svg>
