<svg width="64" height="64" viewBox="0 0 64 64" fill="none" xmlns="http://www.w3.org/2000/svg">
<g clip-path="url(#clip0_113_23)">
<path d="M11.6682 31.8167H32.4182C33.4796 31.8167 34.5025 32.2125 35.2885 32.926L45.8015 42.4833L41.5348 46.75L33.0015 39.2833H11.6682V31.8167Z" fill="#6E83B7"/>
<path d="M14.9333 12.8H19.1999V16H14.9333V12.8Z" fill="#FCB98B"/>
<path d="M24.5332 34.1333H11.7333V18.1333C11.7333 16.3662 13.1661 14.9333 14.9333 14.9333H17.1124C19.6728 14.9333 21.9864 16.4589 22.9952 18.812L23.326 19.5818C24.1228 21.4411 24.5332 23.4432 24.5332 25.4656V34.1333Z" fill="#80D6FB"/>
<path d="M12.8 23.4667H17.0666V29.8667H12.8V23.4667Z" fill="#FFD3B3"/>
<path d="M17.0666 23.4667H12.8V18.1334C12.8 16.9547 13.7547 16.0001 14.9333 16.0001C16.112 16.0001 17.0666 16.9547 17.0666 18.1334V23.4667Z" fill="#46BEE8"/>
<path d="M12.8 22.4H17.0666V23.4667H12.8V22.4Z" fill="#6E83B7"/>
<path d="M10.6666 36.2666H8.5333V14.9334C8.5333 13.1693 7.09789 11.7334 5.33331 11.7334H1.06665V9.60004H5.33331C8.27445 9.60004 10.6666 11.9927 10.6666 14.9334V36.2666Z" fill="#EDEFF1"/>
<path d="M44.7348 52.5161C43.9619 52.5161 43.1884 52.2369 42.5739 51.6723L31.5853 41.5999H28.7999V39.4666H32.415L44.015 50.1004C44.4374 50.4874 45.0848 50.476 45.49 50.0682L49.379 46.1791L50.8874 47.6874L46.9983 51.5765C46.3744 52.2015 45.5551 52.5161 44.7348 52.5161Z" fill="#EDEFF1"/>
<path d="M29.8666 41.6C29.8666 48.6692 24.1359 54.3999 17.0666 54.3999C9.99738 54.3999 4.26666 48.6692 4.26666 41.6C4.26666 34.5307 9.99738 28.8 17.0666 28.8C24.1359 28.8 29.8666 34.5307 29.8666 41.6Z" fill="#EDEFF1"/>
<path d="M27.7333 41.6C27.7333 47.4911 22.9577 52.2666 17.0666 52.2666C11.1755 52.2666 6.39996 47.4911 6.39996 41.6C6.39996 35.7089 11.1755 30.9333 17.0666 30.9333C22.9577 30.9333 27.7333 35.7089 27.7333 41.6Z" fill="#D3D3D3"/>
<path d="M19.1999 41.6C19.1999 42.7781 18.2447 43.7333 17.0666 43.7333C15.8885 43.7333 14.9333 42.7781 14.9333 41.6C14.9333 40.4219 15.8885 39.4667 17.0666 39.4667C18.2447 39.4667 19.1999 40.4219 19.1999 41.6Z" fill="#6E83B7"/>
<path d="M17.0666 13.8667C14.1218 13.8667 11.7333 11.4787 11.7333 8.53336V6.40003C11.7333 3.45525 14.1218 1.06671 17.0666 1.06671C20.0119 1.06671 22.3999 3.45525 22.3999 6.40003V8.53336C22.3999 11.4787 20.0119 13.8667 17.0666 13.8667Z" fill="#FFD3B3"/>
<path d="M18.1333 5.33338V7.02504C18.1333 7.30786 18.0213 7.57973 17.8208 7.77921L17.0666 8.53337V7.46671H15.9999C15.9999 8.64535 15.0452 9.60004 13.8666 9.60004H11.8411C11.7708 9.25577 11.7333 8.89848 11.7333 8.53337V4.26672C11.7333 1.91047 13.6437 6.10352e-05 15.9999 6.10352e-05H23.4666V3.20005C23.4666 4.3787 22.5119 5.33338 21.3333 5.33338H18.1333Z" fill="#6E83B7"/>
<path d="M17.0666 9.60008H16.5333C15.6505 9.60008 14.9333 8.88341 14.9333 8.00008C14.9333 7.11675 15.6505 6.40009 16.5333 6.40009H17.0666V9.60008Z" fill="#FFD3B3"/>
<path d="M22.4 6.40009L22.9901 7.57977C23.2536 8.10685 23.0401 8.74696 22.513 9.0105L21.3333 9.60008L22.4 6.40009Z" fill="#FFD3B3"/>
<path d="M16.5333 8.5334C16.239 8.5334 15.9999 8.29434 15.9999 8.00007C15.9999 7.7058 16.239 7.46674 16.5333 7.46674H17.0666V8.5334H16.5333Z" fill="#FCB98B"/>
<path d="M52.2665 44.8H55.4665V62.9333H52.2665V44.8Z" fill="#EDEFF1"/>
<path d="M55.4666 43.7333H63.9999V63.9999H55.4666V43.7333Z" fill="#FFB0AA"/>
<path d="M50.1332 45.8666C48.5993 42.8578 44.3223 41.6 41.5999 41.6C38.878 41.6 35.1671 42.7672 33.0666 45.8666H23.4666C21.6994 45.8666 20.2666 47.2994 20.2666 49.0666C20.2666 50.8343 21.6994 52.2666 23.4666 52.2666H20.2666L6.93017 44.3411C4.97705 43.1692 2.44789 43.7385 1.18539 45.6333L0.35831 46.8724C-0.295334 47.8531 -0.0297096 49.1776 0.950496 49.8317L18.126 61.1499C18.8255 61.6171 19.6437 61.8666 20.4864 61.8666C24.1353 61.8666 34.2796 61.8666 34.1332 61.8666H52.2665V45.8666H50.1332Z" fill="#FFD3B3"/>
<path d="M21.0979 51.2C21.6833 51.8505 22.5229 52.2666 23.4666 52.2666H34.1333V51.2H21.0979Z" fill="#FCB98B"/>
<path d="M54.3999 44.8H55.4666V62.9333H54.3999V44.8Z" fill="#D3D3D3"/>
<path d="M37.3333 27.7333C37.3333 27.7333 47.9999 20.3115 47.9999 13.8667C47.9999 11.0391 45.4947 8.53339 42.6666 8.53339C40.0801 8.53339 37.8666 10.2219 37.3333 11.7334C36.7999 10.2219 34.5869 8.53339 31.9999 8.53339C29.1723 8.53339 26.6666 11.0391 26.6666 13.8667C26.6666 20.3115 37.3333 27.7333 37.3333 27.7333Z" fill="#FFB0AA"/>
</g>
<defs>
<clipPath id="clip0_113_23">
<rect width="64" height="64" fill="white"/>
</clipPath>
</defs>
</svg>
